<svg width="14" height="16" viewBox="0 0 14 16" fill="none" xmlns="http://www.w3.org/2000/svg">
<path d="M12.5 2.6875V5.45937C12.0844 5.68437 11.5125 5.90313 10.7875 6.08125C9.72813 6.34375 8.42188 6.5 7 6.5C5.57812 6.5 4.27188 6.34375 3.2125 6.08125C2.4875 5.90313 1.91562 5.6875 1.5 5.45937V2.6875L1.51875 2.67188C1.68437 2.53125 2.01562 2.3375 2.55625 2.14375C3.62188 1.76562 5.19375 1.5 7 1.5C8.80625 1.5 10.3781 1.76562 11.4438 2.14375C11.9844 2.3375 12.3125 2.53125 12.4812 2.67188L12.5 2.6875ZM12.5 7.10938V9.45938C12.0844 9.68438 11.5125 9.90312 10.7875 10.0813C9.72813 10.3438 8.42188 10.5 7 10.5C5.57812 10.5 4.27188 10.3438 3.2125 10.0813C2.4875 9.90312 1.91562 9.6875 1.5 9.45938V7.1125C1.91562 7.27813 2.37188 7.42188 2.85313 7.54063C4.04688 7.83125 5.475 8 7 8C8.525 8 9.95312 7.83125 11.1469 7.5375C11.6281 7.41875 12.0844 7.27812 12.5 7.10938ZM1.5 13.3125V11.1125C1.91562 11.2781 2.37188 11.4219 2.85313 11.5406C4.04688 11.8312 5.475 12 7 12C8.525 12 9.95312 11.8313 11.1469 11.5375C11.6281 11.4188 12.0844 11.2781 12.5 11.1094V13.3125L12.4812 13.3281C12.3156 13.4688 11.9844 13.6625 11.4438 13.8562C10.3781 14.2344 8.80625 14.5 7 14.5C5.19375 14.5 3.62188 14.2344 2.55625 13.8562C2.01562 13.6625 1.6875 13.4688 1.51875 13.3281L1.5 13.3125ZM12.5656 13.2469C12.5656 13.2469 12.5656 13.25 12.5594 13.2531L12.5625 13.2469V13.2437L12.5656 13.2469ZM1.4375 13.2469C1.43791 13.2481 1.43856 13.2492 1.43941 13.2502C1.44026 13.2512 1.44129 13.252 1.44246 13.2526C1.44362 13.2532 1.44488 13.2535 1.44617 13.2536C1.44747 13.2537 1.44877 13.2535 1.45 13.2531C1.45123 13.2527 1.45237 13.2521 1.45335 13.2512C1.45433 13.2504 1.45513 13.2493 1.45571 13.2482C1.45629 13.247 1.45664 13.2457 1.45673 13.2445C1.45682 13.2432 1.45666 13.2419 1.45625 13.2406C1.45584 13.2394 1.45519 13.2383 1.45434 13.2373C1.45349 13.2363 1.45246 13.2355 1.45129 13.2349C1.45013 13.2343 1.44887 13.234 1.44758 13.2339C1.44628 13.2338 1.44498 13.234 1.44375 13.2344C1.44252 13.2348 1.44138 13.2354 1.4404 13.2363C1.43942 13.2371 1.43862 13.2382 1.43804 13.2393C1.43746 13.2405 1.43711 13.2418 1.43702 13.243C1.43693 13.2443 1.43709 13.2456 1.4375 13.2469ZM1.4375 2.75312C1.43632 2.75419 1.43543 2.75554 1.43491 2.75705C1.43439 2.75855 1.43427 2.76017 1.43455 2.76173C1.43483 2.7633 1.4355 2.76477 1.43651 2.76601C1.43751 2.76724 1.43882 2.7682 1.4403 2.76879C1.44177 2.76938 1.44338 2.76959 1.44496 2.76939C1.44654 2.76919 1.44804 2.76859 1.44932 2.76765C1.45061 2.7667 1.45163 2.76545 1.4523 2.764C1.45296 2.76256 1.45325 2.76096 1.45312 2.75938C1.45431 2.75831 1.4552 2.75696 1.45572 2.75545C1.45623 2.75395 1.45636 2.75233 1.45608 2.75077C1.4558 2.7492 1.45512 2.74773 1.45412 2.74649C1.45311 2.74526 1.45181 2.7443 1.45033 2.74371C1.44885 2.74312 1.44725 2.74291 1.44567 2.74311C1.44409 2.74331 1.44258 2.74391 1.4413 2.74485C1.44002 2.7458 1.43899 2.74705 1.43833 2.7485C1.43766 2.74994 1.43738 2.75154 1.4375 2.75312ZM12.5625 2.74688C12.56 2.74646 12.5575 2.74705 12.5554 2.74852C12.5534 2.74998 12.552 2.7522 12.5516 2.75469C12.5511 2.75717 12.5517 2.75972 12.5532 2.76177C12.5547 2.76383 12.5569 2.76521 12.5594 2.76562C12.5606 2.76583 12.5619 2.76579 12.5631 2.76551C12.5643 2.76523 12.5654 2.76471 12.5665 2.76398C12.5675 2.76326 12.5683 2.76234 12.569 2.76128C12.5697 2.76022 12.5701 2.75904 12.5703 2.75781C12.5705 2.75658 12.5705 2.75532 12.5702 2.75411C12.5699 2.75289 12.5694 2.75174 12.5687 2.75073C12.5679 2.74971 12.567 2.74885 12.566 2.74819C12.5649 2.74753 12.5637 2.74708 12.5625 2.74688ZM14 13.5V2.5C14 1.11875 10.8656 0 7 0C3.13438 0 0 1.11875 0 2.5V13.5C0 14.8813 3.13438 16 7 16C10.8656 16 14 14.8813 14 13.5Z" fill="#443794"/>
</svg>
