<svg width="30" height="30" viewBox="0 0 30 30" fill="none" xmlns="http://www.w3.org/2000/svg">
<path d="M10.1667 21.0417C10.1667 21.6764 10.2917 22.3049 10.5346 22.8913C10.7775 23.4777 11.1335 24.0105 11.5824 24.4593C12.0312 24.9082 12.564 25.2642 13.1504 25.5071C13.7368 25.75 14.3653 25.875 15 25.875C15.6348 25.875 16.2633 25.75 16.8497 25.5071C17.4361 25.2642 17.9689 24.9082 18.4177 24.4593C18.8665 24.0105 19.2226 23.4777 19.4655 22.8913C19.7084 22.3049 19.8334 21.6764 19.8334 21.0417" stroke="white" stroke-width="2" stroke-linecap="round"/>
<path fill-rule="evenodd" clip-rule="evenodd" d="M24.3419 16.9417C24.4259 16.8915 24.4678 16.8664 24.508 16.8765C24.5481 16.8865 24.5728 16.9277 24.6222 17.01L24.9151 17.4982L24.9526 17.5607C25.3232 18.1782 25.6577 18.7355 25.8519 19.2038C26.0554 19.6945 26.2241 20.3648 25.8492 21.0271C25.4743 21.6893 24.8126 21.8895 24.2871 21.9674C23.7856 22.0418 23.1357 22.0418 22.4155 22.0417H22.4155L22.3426 22.0417H7.65737L7.58449 22.0417H7.58447C6.86428 22.0418 6.21436 22.0418 5.71284 21.9674C5.18735 21.8895 4.52572 21.6893 4.15078 21.0271C3.77584 20.3648 3.94459 19.6945 4.1481 19.2038C4.34233 18.7355 4.67678 18.1782 5.04739 17.5607L5.08489 17.4982L5.78887 16.3249C5.99795 15.9764 6.08529 15.8303 6.16375 15.6837C6.52955 15 6.77923 14.2603 6.90258 13.4949C6.92904 13.3307 6.94811 13.1615 6.99299 12.7576L7.29725 10.0193C7.73335 6.09436 11.0509 3.125 15 3.125C15.7328 3.125 16.4438 3.22724 17.1187 3.41885C17.3236 3.47701 17.426 3.50609 17.4324 3.57421C17.4389 3.64232 17.3396 3.69209 17.1411 3.79163C16.4722 4.12705 15.8604 4.55958 15.3243 5.07071C15.2931 5.1004 15.2776 5.11524 15.2588 5.12241C15.2401 5.12959 15.2185 5.12893 15.1752 5.12763C15.117 5.12588 15.0586 5.125 15 5.125C12.07 5.125 9.60858 7.32808 9.28502 10.2401L8.98076 12.9785L8.97772 13.0058C8.93676 13.3745 8.91231 13.5946 8.87711 13.813C8.71851 14.7972 8.3975 15.7483 7.92718 16.6272C7.8228 16.8223 7.70889 17.0122 7.51798 17.3303L7.50386 17.3539L6.79988 18.5272C6.37959 19.2277 6.12584 19.6558 5.99553 19.97C5.99209 19.9783 5.9974 19.9877 6.00635 19.9891C6.34283 20.039 6.84048 20.0417 7.65737 20.0417H22.3426C23.1595 20.0417 23.6572 20.039 23.9936 19.9891C24.0026 19.9877 24.0079 19.9783 24.0045 19.97C23.8741 19.6558 23.6204 19.2277 23.2001 18.5272L22.8206 17.8947C22.7603 17.7942 22.7302 17.744 22.7466 17.6992C22.7629 17.6544 22.8194 17.635 22.9324 17.5963C23.4277 17.4264 23.8996 17.2062 24.3419 16.9417ZM24.0716 20.1793C24.0714 20.1791 24.0711 20.1766 24.0709 20.172C24.0717 20.1771 24.0717 20.1794 24.0716 20.1793ZM24.2062 19.9395C24.2051 19.94 24.2033 19.9409 24.201 19.9422C24.2058 19.9402 24.2078 19.939 24.2076 19.939C24.2076 19.9389 24.2071 19.9391 24.2062 19.9395ZM5.79234 19.939C5.79252 19.9389 5.79491 19.9399 5.79899 19.9422C5.7942 19.9402 5.79216 19.939 5.79234 19.939ZM5.92906 20.172C5.92894 20.1766 5.92856 20.1791 5.9284 20.1793C5.92824 20.1794 5.92831 20.177 5.92906 20.172Z" fill="white"/>
<circle cx="20.5" cy="10.5" r="6.5" fill="#E81A1A"/>
<path d="M17.385 12.064L18.419 11.756C18.4483 12.196 18.6097 12.5517 18.903 12.823C19.2037 13.0943 19.5777 13.23 20.025 13.23C20.4577 13.23 20.8207 13.098 21.114 12.834C21.4073 12.57 21.554 12.2217 21.554 11.789C21.554 11.3197 21.4073 10.9567 21.114 10.7C20.8207 10.4433 20.454 10.315 20.014 10.315C19.4787 10.315 19.046 10.4873 18.716 10.832C18.6133 10.7953 18.4447 10.7293 18.21 10.634C17.9753 10.5387 17.792 10.4653 17.66 10.414L18.584 6.872H22.346V7.862H19.299L18.771 9.908C19.0863 9.556 19.5703 9.38 20.223 9.38C20.9343 9.38 21.5137 9.59267 21.961 10.018C22.4157 10.4433 22.643 11.019 22.643 11.745C22.643 12.4343 22.401 13.0137 21.917 13.483C21.433 13.945 20.8023 14.176 20.025 14.176C19.2917 14.176 18.6793 13.9707 18.188 13.56C17.704 13.1493 17.4363 12.6507 17.385 12.064Z" fill="white"/>
</svg>
