<svg width="20" height="16" viewBox="0 0 20 16" fill="none" xmlns="http://www.w3.org/2000/svg">
<path d="M8.99661 2C8.99661 2.52813 8.79349 3.00625 8.45911 3.3625L9.29974 5.15938C9.68099 5.05313 10.081 4.99687 10.4966 4.99687C11.7154 4.99687 12.8216 5.48125 13.631 6.26875L16.056 4.49062C16.0154 4.33437 15.9966 4.16875 15.9966 4C15.9966 2.89687 16.8935 2 17.9966 2C19.0997 2 19.9966 2.89687 19.9966 4C19.9966 5.10313 19.0997 6 17.9966 6C17.6122 6 17.2497 5.89062 16.9435 5.7L14.5185 7.47813C14.8247 8.08438 14.9966 8.77187 14.9966 9.49687C14.9966 10.075 14.8872 10.6281 14.6872 11.1375L16.7904 12.4C17.1247 12.1469 17.5435 11.9969 17.9935 11.9969C19.0966 11.9969 19.9935 12.8938 19.9935 13.9969C19.9935 15.1 19.0966 15.9969 17.9935 15.9969C16.8904 15.9969 15.9935 15.1 15.9935 13.9969C15.9935 13.8906 16.0029 13.7875 16.0185 13.6875L13.9122 12.425C13.0904 13.3906 11.8654 14 10.4966 14C8.26536 14 6.41536 12.3781 6.05911 10.25H3.84974C3.55286 10.9844 2.83411 11.5 1.99661 11.5C0.893488 11.5 -0.00338745 10.6031 -0.00338745 9.5C-0.00338745 8.39688 0.893488 7.5 1.99661 7.5C2.83724 7.5 3.55599 8.01562 3.84974 8.75H6.05911C6.26536 7.52812 6.96224 6.47188 7.94036 5.79688L7.09974 3.99688C7.06536 4 7.03099 4 6.99661 4C5.89349 4 4.99661 3.10313 4.99661 2C4.99661 0.896875 5.89349 0 6.99661 0C8.09974 0 8.99661 0.896875 8.99661 2ZM10.4966 12.5C10.8906 12.5 11.2807 12.4224 11.6447 12.2716C12.0086 12.1209 12.3394 11.8999 12.6179 11.6213C12.8965 11.3427 13.1175 11.012 13.2683 10.6481C13.419 10.2841 13.4966 9.89397 13.4966 9.5C13.4966 9.10603 13.419 8.71593 13.2683 8.35195C13.1175 7.98797 12.8965 7.65726 12.6179 7.37868C12.3394 7.1001 12.0086 6.87913 11.6447 6.72836C11.2807 6.5776 10.8906 6.5 10.4966 6.5C10.1026 6.5 9.71254 6.5776 9.34856 6.72836C8.98459 6.87913 8.65387 7.1001 8.37529 7.37868C8.09672 7.65726 7.87574 7.98797 7.72497 8.35195C7.57421 8.71593 7.49661 9.10603 7.49661 9.5C7.49661 9.89397 7.57421 10.2841 7.72497 10.6481C7.87574 11.012 8.09672 11.3427 8.37529 11.6213C8.65387 11.8999 8.98459 12.1209 9.34856 12.2716C9.71254 12.4224 10.1026 12.5 10.4966 12.5Z" fill="#5E6580"/>
</svg>
