<svg width="78" height="47" viewBox="0 0 78 47" fill="none" xmlns="http://www.w3.org/2000/svg">
<rect y="-0.00585938" width="78" height="46.2609" rx="8" fill="#E2E4FF"/>
<rect y="11.9941" width="2.99661" height="22.2609" rx="1.49831" fill="#443794"/>
<path d="M40.9966 17.6246V28.6246H44.9966C45.2716 28.6246 45.4966 28.3996 45.4966 28.1246V18.1246C45.4966 17.8496 45.2716 17.6246 44.9966 17.6246H40.9966ZM39.4966 17.6246H34.4966V28.6246H39.4966V17.6246ZM32.9966 28.6246V17.6246H28.9966C28.7216 17.6246 28.4966 17.8496 28.4966 18.1246V28.1246C28.4966 28.3996 28.7216 28.6246 28.9966 28.6246H32.9966ZM26.9966 18.1246C26.9966 17.0214 27.8935 16.1246 28.9966 16.1246H44.9966C46.0997 16.1246 46.9966 17.0214 46.9966 18.1246V28.1246C46.9966 29.2277 46.0997 30.1246 44.9966 30.1246H28.9966C27.8935 30.1246 26.9966 29.2277 26.9966 28.1246V18.1246Z" fill="#443794"/>
</svg>
