<svg width="20" height="24" viewBox="0 0 20 24" fill="none" xmlns="http://www.w3.org/2000/svg">
<path d="M18.9346 5.83087L13.3097 0.206016C13.1785 0.0746719 12.9993 0 12.8125 0H2.96875C1.80564 0 0.859375 0.946266 0.859375 2.10938V21.8906C0.859375 23.0537 1.80564 24 2.96875 24H17.0312C18.1944 24 19.1406 23.0537 19.1406 21.8906V6.32812C19.1406 6.13641 19.0601 5.95636 18.9346 5.83087ZM13.5156 2.40061L16.74 5.625H14.2188C13.831 5.625 13.5156 5.30958 13.5156 4.92188V2.40061ZM17.0312 22.5938H2.96875C2.58105 22.5938 2.26562 22.2783 2.26562 21.8906V2.10938C2.26562 1.72167 2.58105 1.40625 2.96875 1.40625H12.1094V4.92188C12.1094 6.08498 13.0556 7.03125 14.2188 7.03125H17.7344V21.8906C17.7344 22.2783 17.419 22.5938 17.0312 22.5938Z" fill="#F5F8FF"/>
<path d="M14.2188 9.9375H5.78125C5.39294 9.9375 5.07812 10.2523 5.07812 10.6406C5.07812 11.0289 5.39294 11.3438 5.78125 11.3438H14.2188C14.6071 11.3438 14.9219 11.0289 14.9219 10.6406C14.9219 10.2523 14.6071 9.9375 14.2188 9.9375Z" fill="#F5F8FF"/>
<path d="M14.2188 12.75H5.78125C5.39294 12.75 5.07812 13.0648 5.07812 13.4531C5.07812 13.8414 5.39294 14.1562 5.78125 14.1562H14.2188C14.6071 14.1562 14.9219 13.8414 14.9219 13.4531C14.9219 13.0648 14.6071 12.75 14.2188 12.75Z" fill="#F5F8FF"/>
<path d="M14.2188 15.5625H5.78125C5.39294 15.5625 5.07812 15.8773 5.07812 16.2656C5.07812 16.6539 5.39294 16.9688 5.78125 16.9688H14.2188C14.6071 16.9688 14.9219 16.6539 14.9219 16.2656C14.9219 15.8773 14.6071 15.5625 14.2188 15.5625Z" fill="#F5F8FF"/>
<path d="M11.4062 18.375H5.78125C5.39294 18.375 5.07812 18.6898 5.07812 19.0781C5.07812 19.4664 5.39294 19.7812 5.78125 19.7812H11.4062C11.7946 19.7812 12.1094 19.4664 12.1094 19.0781C12.1094 18.6898 11.7946 18.375 11.4062 18.375Z" fill="#F5F8FF"/>
</svg>
