<svg width="24" height="40" viewBox="0 0 24 40" fill="none" xmlns="http://www.w3.org/2000/svg">
<g clip-path="url(#clip0_1_14462)">
<path fill-rule="evenodd" clip-rule="evenodd" d="M21.8982 15.0956C21.9142 15.0788 21.9222 15.0704 21.9308 15.0595C21.9681 15.0122 21.9945 14.9378 21.9954 14.8776C21.9955 14.8637 21.9949 14.8562 21.9938 14.8411C21.9126 13.812 21.0497 13 20 13H4C2.89688 13 2 13.8969 2 15V25C2 26.1031 2.89688 27 4 27H11.6633C11.7128 27 11.7375 27 11.7594 26.9968C11.865 26.9811 11.9543 26.9106 11.9939 26.8115C12.0021 26.791 12.0079 26.7669 12.0193 26.7188L12.2022 25.9508C12.2197 25.8772 12.2285 25.8404 12.2295 25.8106C12.2347 25.6638 12.1329 25.5349 11.9889 25.5059C11.9596 25.5 11.9218 25.5 11.8461 25.5H9.866C9.80468 25.5 9.77402 25.5 9.74842 25.4955C9.6238 25.4738 9.52622 25.3762 9.50447 25.2516C9.5 25.226 9.5 25.1953 9.5 25.134V14.866C9.5 14.8047 9.5 14.774 9.50447 14.7484C9.52622 14.6238 9.6238 14.5262 9.74842 14.5045C9.77402 14.5 9.80468 14.5 9.866 14.5H14.134C14.1953 14.5 14.226 14.5 14.2516 14.5045C14.3762 14.5262 14.4738 14.6238 14.4955 14.7484C14.5 14.774 14.5 14.8047 14.5 14.866V21.9487C14.5 22.085 14.5 22.1532 14.5102 22.1913C14.5621 22.3848 14.7853 22.4741 14.9563 22.3697C14.99 22.3492 15.037 22.2998 15.131 22.2011L15.899 21.3947C15.9169 21.3759 15.9259 21.3665 15.9338 21.3567C15.9713 21.3101 15.9939 21.2533 15.9989 21.1937C16 21.1812 16 21.1682 16 21.1423V14.866C16 14.8047 16 14.774 16.0045 14.7484C16.0262 14.6238 16.1238 14.5262 16.2484 14.5045C16.274 14.5 16.3047 14.5 16.366 14.5H20C20.275 14.5 20.5 14.725 20.5 15V15.6487C20.5 15.785 20.5 15.8532 20.5102 15.8913C20.5621 16.0848 20.7853 16.1741 20.9563 16.0697C20.99 16.0492 21.037 15.9998 21.131 15.9011L21.8982 15.0956ZM19.6474 26.3816C19.5588 26.4746 19.5145 26.5211 19.4958 26.555C19.4013 26.7262 19.4932 26.9406 19.6823 26.9902C19.7197 27 19.784 27 19.9124 27H20C21.1031 27 22 26.1031 22 25V24.8263C22 24.69 22 24.6218 21.9898 24.5837C21.9379 24.3902 21.7147 24.3009 21.5437 24.4053C21.51 24.4258 21.463 24.4752 21.369 24.5739L19.6474 26.3816ZM7.634 14.5C7.69532 14.5 7.72598 14.5 7.75158 14.5045C7.8762 14.5262 7.97378 14.6238 7.99553 14.7484C8 14.774 8 14.8047 8 14.866V25.134C8 25.1953 8 25.226 7.99553 25.2516C7.97378 25.3762 7.8762 25.4738 7.75158 25.4955C7.72598 25.5 7.69532 25.5 7.634 25.5H4C3.725 25.5 3.5 25.275 3.5 25V15C3.5 14.725 3.725 14.5 4 14.5H7.634Z" fill="#443794"/>
<path fill-rule="evenodd" clip-rule="evenodd" d="M21.9978 18C21.7482 18 21.498 18.1086 21.3055 18.3203L14.6666 25.6232L14.1727 27.7965L16.0602 27.2774L22.6901 19.9845C22.8839 19.7713 23 19.4726 23 19.1524C23 18.8322 22.8839 18.5336 22.6901 18.3203C22.4976 18.1086 22.2474 18 21.9978 18ZM20.5656 17.6476C20.9366 17.2396 21.4506 17 21.9978 17C22.545 17 23.059 17.2396 23.43 17.6476C23.7996 18.0542 24 18.5961 24 19.1524C24 19.7087 23.7996 20.2507 23.43 20.6572L16.7026 28.0574C16.6389 28.1275 16.5565 28.178 16.4652 28.2031L13.6326 28.9821C13.4631 29.0287 13.2815 28.9829 13.1545 28.8614C13.0274 28.7399 12.9735 28.5606 13.0124 28.3892L13.7206 25.2733C13.7397 25.1893 13.7802 25.1116 13.8382 25.0478L20.5656 17.6476Z" fill="#443794"/>
</g>
<defs>
<clipPath id="clip0_1_14462">
<rect width="24" height="40" fill="white"/>
</clipPath>
</defs>
</svg>
