<svg width="16" height="17" viewBox="0 0 16 17" fill="none" xmlns="http://www.w3.org/2000/svg">
<path d="M8.00001 15.1667C11.6819 15.1667 14.6667 12.1819 14.6667 8.50001C14.6667 4.81811 11.6819 1.83334 8.00001 1.83334C4.31811 1.83334 1.33334 4.81811 1.33334 8.50001C1.33334 12.1819 4.31811 15.1667 8.00001 15.1667Z" stroke="#5E6580" stroke-width="1.5" stroke-linecap="round" stroke-linejoin="round"/>
<path d="M6.06 6.50001C6.21673 6.05446 6.5261 5.67875 6.9333 5.43944C7.3405 5.20012 7.81926 5.11264 8.28478 5.19249C8.7503 5.27234 9.17254 5.51436 9.47672 5.8757C9.78089 6.23703 9.94737 6.69436 9.94666 7.16668C9.94666 8.50001 7.94666 9.16668 7.94666 9.16668" stroke="#5E6580" stroke-width="1.5" stroke-linecap="round" stroke-linejoin="round"/>
<path d="M8 11.8333H8.00667" stroke="#5E6580" stroke-width="2" stroke-linecap="round" stroke-linejoin="round"/>
</svg>
