<svg width="24" height="24" viewBox="0 0 24 24" fill="none" xmlns="http://www.w3.org/2000/svg">
<path d="M22 11.25H10.6742C10.5013 10.4031 10.0412 9.64201 9.37164 9.09538C8.70212 8.54874 7.86433 8.25017 7 8.25017C6.13567 8.25017 5.29788 8.54874 4.62836 9.09538C3.95884 9.64201 3.4987 10.4031 3.3258 11.25H2C1.80109 11.25 1.61032 11.329 1.46967 11.4697C1.32902 11.6103 1.25 11.8011 1.25 12C1.25 12.1989 1.32902 12.3897 1.46967 12.5303C1.61032 12.671 1.80109 12.75 2 12.75H3.3258C3.4987 13.5969 3.95884 14.358 4.62836 14.9046C5.29788 15.4513 6.13567 15.7498 7 15.7498C7.86433 15.7498 8.70212 15.4513 9.37164 14.9046C10.0412 14.358 10.5013 13.5969 10.6742 12.75H22C22.1989 12.75 22.3897 12.671 22.5303 12.5303C22.671 12.3897 22.75 12.1989 22.75 12C22.75 11.8011 22.671 11.6103 22.5303 11.4697C22.3897 11.329 22.1989 11.25 22 11.25ZM7 14.25C6.55499 14.25 6.11998 14.118 5.74997 13.8708C5.37996 13.6236 5.09157 13.2722 4.92127 12.861C4.75097 12.4499 4.70642 11.9975 4.79323 11.561C4.88005 11.1246 5.09434 10.7237 5.40901 10.409C5.72368 10.0943 6.12459 9.88005 6.56105 9.79323C6.9975 9.70641 7.4499 9.75097 7.86104 9.92127C8.27217 10.0916 8.62357 10.38 8.87081 10.75C9.11804 11.12 9.25 11.555 9.25 12C9.24926 12.5965 9.01197 13.1684 8.59017 13.5902C8.16838 14.012 7.59651 14.2493 7 14.25Z" fill="white"/>
<path d="M22 4.25H19.6742C19.5013 3.40314 19.0412 2.64201 18.3716 2.09538C17.7021 1.54874 16.8643 1.25017 16 1.25017C15.1357 1.25017 14.2979 1.54874 13.6284 2.09538C12.9588 2.64201 12.4987 3.40314 12.3258 4.25H2C1.80109 4.25 1.61032 4.32902 1.46967 4.46967C1.32902 4.61032 1.25 4.80109 1.25 5C1.25 5.19891 1.32902 5.38968 1.46967 5.53033C1.61032 5.67098 1.80109 5.75 2 5.75H12.3258C12.4987 6.59686 12.9588 7.35799 13.6284 7.90462C14.2979 8.45126 15.1357 8.74983 16 8.74983C16.8643 8.74983 17.7021 8.45126 18.3716 7.90462C19.0412 7.35799 19.5013 6.59686 19.6742 5.75H22C22.1989 5.75 22.3897 5.67098 22.5303 5.53033C22.671 5.38968 22.75 5.19891 22.75 5C22.75 4.80109 22.671 4.61032 22.5303 4.46967C22.3897 4.32902 22.1989 4.25 22 4.25ZM16 7.25C15.555 7.25 15.12 7.11804 14.75 6.87081C14.38 6.62357 14.0916 6.27217 13.9213 5.86104C13.751 5.4499 13.7064 4.9975 13.7932 4.56105C13.88 4.12459 14.0943 3.72368 14.409 3.40901C14.7237 3.09434 15.1246 2.88005 15.561 2.79323C15.9975 2.70641 16.4499 2.75097 16.861 2.92127C17.2722 3.09157 17.6236 3.37995 17.8708 3.74997C18.118 4.11998 18.25 4.55499 18.25 5C18.2493 5.59651 18.012 6.16837 17.5902 6.59017C17.1684 7.01197 16.5965 7.24926 16 7.25Z" fill="white"/>
<path d="M22 18.25H19.6742C19.5013 17.4031 19.0412 16.642 18.3716 16.0954C17.7021 15.5487 16.8643 15.2502 16 15.2502C15.1357 15.2502 14.2979 15.5487 13.6284 16.0954C12.9588 16.642 12.4987 17.4031 12.3258 18.25H2C1.80109 18.25 1.61032 18.329 1.46967 18.4697C1.32902 18.6103 1.25 18.8011 1.25 19C1.25 19.1989 1.32902 19.3897 1.46967 19.5303C1.61032 19.671 1.80109 19.75 2 19.75H12.3258C12.4987 20.5969 12.9588 21.358 13.6284 21.9046C14.2979 22.4513 15.1357 22.7498 16 22.7498C16.8643 22.7498 17.7021 22.4513 18.3716 21.9046C19.0412 21.358 19.5013 20.5969 19.6742 19.75H22C22.1989 19.75 22.3897 19.671 22.5303 19.5303C22.671 19.3897 22.75 19.1989 22.75 19C22.75 18.8011 22.671 18.6103 22.5303 18.4697C22.3897 18.329 22.1989 18.25 22 18.25ZM16 21.25C15.555 21.25 15.12 21.118 14.75 20.8708C14.38 20.6236 14.0916 20.2722 13.9213 19.861C13.751 19.4499 13.7064 18.9975 13.7932 18.561C13.88 18.1246 14.0943 17.7237 14.409 17.409C14.7237 17.0943 15.1246 16.88 15.561 16.7932C15.9975 16.7064 16.4499 16.751 16.861 16.9213C17.2722 17.0916 17.6236 17.38 17.8708 17.75C18.118 18.12 18.25 18.555 18.25 19C18.2493 19.5965 18.012 20.1684 17.5902 20.5902C17.1684 21.012 16.5965 21.2493 16 21.25Z" fill="white"/>
</svg>
