<svg width="16" height="16" viewBox="0 0 16 16" fill="none" xmlns="http://www.w3.org/2000/svg">
<path d="M11.4966 6.49689C11.4966 5.1708 10.9698 3.89904 10.0321 2.96135C9.09446 2.02367 7.82269 1.49689 6.49661 1.49689C5.17053 1.49689 3.89876 2.02367 2.96108 2.96135C2.0234 3.89904 1.49661 5.1708 1.49661 6.49689C1.49661 7.82297 2.0234 9.09474 2.96108 10.0324C3.89876 10.9701 5.17053 11.4969 6.49661 11.4969C7.82269 11.4969 9.09446 10.9701 10.0321 10.0324C10.9698 9.09474 11.4966 7.82297 11.4966 6.49689ZM10.531 11.5938C9.42474 12.4719 8.02161 12.9969 6.49661 12.9969C2.90599 12.9969 -0.00338745 10.0875 -0.00338745 6.49689C-0.00338745 2.90626 2.90599 -0.00311279 6.49661 -0.00311279C10.0872 -0.00311279 12.9966 2.90626 12.9966 6.49689C12.9966 8.02189 12.4716 9.42501 11.5935 10.5313L15.7779 14.7156C16.0716 15.0094 16.0716 15.4844 15.7779 15.775C15.4841 16.0656 15.0091 16.0688 14.7185 15.775L10.531 11.5938Z" fill="#5E6580"/>
</svg>
