<svg width="24" height="24" viewBox="0 0 24 24" fill="none" xmlns="http://www.w3.org/2000/svg">
<g clip-path="url(#clip0_1_15392)">
<path d="M11.9966 15C13.6535 15 14.9966 13.6569 14.9966 12C14.9966 10.3431 13.6535 9 11.9966 9C10.3398 9 8.99661 10.3431 8.99661 12C8.99661 13.6569 10.3398 15 11.9966 15Z" stroke="#5E6580" stroke-width="2" stroke-linecap="round" stroke-linejoin="round"/>
<path d="M19.3966 15C19.2635 15.3016 19.2238 15.6362 19.2826 15.9606C19.3414 16.285 19.4961 16.5843 19.7266 16.82L19.7866 16.88C19.9726 17.0657 20.1201 17.2863 20.2207 17.5291C20.3214 17.7719 20.3732 18.0322 20.3732 18.295C20.3732 18.5578 20.3214 18.8181 20.2207 19.0609C20.1201 19.3037 19.9726 19.5243 19.7866 19.71C19.6009 19.896 19.3803 20.0435 19.1375 20.1441C18.8947 20.2448 18.6344 20.2966 18.3716 20.2966C18.1088 20.2966 17.8485 20.2448 17.6057 20.1441C17.3629 20.0435 17.1424 19.896 16.9566 19.71L16.8966 19.65C16.6609 19.4195 16.3616 19.2648 16.0372 19.206C15.7128 19.1472 15.3782 19.1869 15.0766 19.32C14.7808 19.4468 14.5286 19.6572 14.3509 19.9255C14.1732 20.1938 14.0779 20.5082 14.0766 20.83V21C14.0766 21.5304 13.8659 22.0391 13.4908 22.4142C13.1158 22.7893 12.607 23 12.0766 23C11.5462 23 11.0375 22.7893 10.6624 22.4142C10.2873 22.0391 10.0766 21.5304 10.0766 21V20.91C10.0689 20.579 9.96173 20.258 9.76912 19.9887C9.57652 19.7194 9.30735 19.5143 8.99661 19.4C8.695 19.2669 8.36042 19.2272 8.03602 19.286C7.71163 19.3448 7.41229 19.4995 7.17661 19.73L7.11661 19.79C6.93087 19.976 6.71029 20.1235 6.46749 20.2241C6.2247 20.3248 5.96444 20.3766 5.70161 20.3766C5.43878 20.3766 5.17853 20.3248 4.93573 20.2241C4.69294 20.1235 4.47236 19.976 4.28661 19.79C4.10066 19.6043 3.95314 19.3837 3.85249 19.1409C3.75184 18.8981 3.70004 18.6378 3.70004 18.375C3.70004 18.1122 3.75184 17.8519 3.85249 17.6091C3.95314 17.3663 4.10066 17.1457 4.28661 16.96L4.34661 16.9C4.57715 16.6643 4.7318 16.365 4.79062 16.0406C4.84944 15.7162 4.80973 15.3816 4.67661 15.08C4.54985 14.7842 4.33937 14.532 4.07108 14.3543C3.80279 14.1766 3.4884 14.0813 3.16661 14.08H2.99661C2.46618 14.08 1.95747 13.8693 1.5824 13.4942C1.20733 13.1191 0.996613 12.6104 0.996613 12.08C0.996613 11.5496 1.20733 11.0409 1.5824 10.6658C1.95747 10.2907 2.46618 10.08 2.99661 10.08H3.08661C3.41761 10.0723 3.73862 9.96512 4.00791 9.77251C4.27721 9.5799 4.48233 9.31074 4.59661 9C4.72973 8.69838 4.76944 8.36381 4.71062 8.03941C4.6518 7.71502 4.49715 7.41568 4.26661 7.18L4.20661 7.12C4.02066 6.93425 3.87314 6.71368 3.77249 6.47088C3.67184 6.22808 3.62004 5.96783 3.62004 5.705C3.62004 5.44217 3.67184 5.18192 3.77249 4.93912C3.87314 4.69632 4.02066 4.47575 4.20661 4.29C4.39236 4.10405 4.61294 3.95653 4.85573 3.85588C5.09853 3.75523 5.35878 3.70343 5.62161 3.70343C5.88444 3.70343 6.1447 3.75523 6.38749 3.85588C6.63029 3.95653 6.85087 4.10405 7.03661 4.29L7.09661 4.35C7.33229 4.58054 7.63163 4.73519 7.95602 4.794C8.28042 4.85282 8.615 4.81312 8.91661 4.68H8.99661C9.29238 4.55324 9.54463 4.34276 9.72231 4.07447C9.89998 3.80618 9.99533 3.49179 9.99661 3.17V3C9.99661 2.46957 10.2073 1.96086 10.5824 1.58579C10.9575 1.21071 11.4662 1 11.9966 1C12.527 1 13.0358 1.21071 13.4108 1.58579C13.7859 1.96086 13.9966 2.46957 13.9966 3V3.09C13.9979 3.41179 14.0932 3.72618 14.2709 3.99447C14.4486 4.26276 14.7008 4.47324 14.9966 4.6C15.2982 4.73312 15.6328 4.77282 15.9572 4.714C16.2816 4.65519 16.5809 4.50054 16.8166 4.27L16.8766 4.21C17.0624 4.02405 17.2829 3.87653 17.5257 3.77588C17.7685 3.67523 18.0288 3.62343 18.2916 3.62343C18.5544 3.62343 18.8147 3.67523 19.0575 3.77588C19.3003 3.87653 19.5209 4.02405 19.7066 4.21C19.8926 4.39575 20.0401 4.61632 20.1407 4.85912C20.2414 5.10192 20.2932 5.36217 20.2932 5.625C20.2932 5.88783 20.2414 6.14808 20.1407 6.39088C20.0401 6.63368 19.8926 6.85425 19.7066 7.04L19.6466 7.1C19.4161 7.33568 19.2614 7.63502 19.2026 7.95941C19.1438 8.28381 19.1835 8.61838 19.3166 8.92V9C19.4434 9.29577 19.6539 9.54802 19.9221 9.72569C20.1904 9.90337 20.5048 9.99872 20.8266 10H20.9966C21.527 10 22.0358 10.2107 22.4108 10.5858C22.7859 10.9609 22.9966 11.4696 22.9966 12C22.9966 12.5304 22.7859 13.0391 22.4108 13.4142C22.0358 13.7893 21.527 14 20.9966 14H20.9066C20.5848 14.0013 20.2704 14.0966 20.0021 14.2743C19.7339 14.452 19.5234 14.7042 19.3966 15Z" stroke="#5E6580" stroke-width="2" stroke-linecap="round" stroke-linejoin="round"/>
</g>
<defs>
<clipPath id="clip0_1_15392">
<rect width="24" height="24" fill="white" transform="translate(-0.00338745)"/>
</clipPath>
</defs>
</svg>
