<svg width="24" height="24" viewBox="0 0 24 24" fill="none" xmlns="http://www.w3.org/2000/svg">
<path d="M18.9271 6.93391C18.9271 3.11067 15.8165 0.000259399 11.9934 0.000259399C8.17017 0.000259399 5.05975 3.11067 5.05975 6.93391C5.05975 9.30202 6.25342 11.3964 8.07019 12.6477C6.3739 13.2331 4.81897 14.2001 3.5127 15.5064C1.2475 17.7716 0 20.7835 0 23.9869H1.8739C1.8739 18.4071 6.41345 13.8676 11.9934 13.8676C15.8165 13.8676 18.9271 10.7572 18.9271 6.93391ZM11.9934 11.9937C9.20343 11.9937 6.93365 9.72389 6.93365 6.93391C6.93365 4.14394 9.20343 1.87416 11.9934 1.87416C14.7832 1.87416 17.053 4.14394 17.053 6.93391C17.053 9.72389 14.7832 11.9937 11.9934 11.9937ZM24 17.2407L19.5895 21.6512L18.2644 20.3261L20.4597 18.1308H18.8344C16.5892 18.1308 14.7609 19.9577 14.759 22.2029L14.7574 23.9876L12.8835 23.9862L12.8849 22.2012C12.8877 18.9235 15.5566 16.2567 18.8344 16.2567H20.3659L18.2644 14.1552L19.5895 12.8303L24 17.2407Z" fill="#F5F8FF"/>
</svg>
